[img]http://img13.imageshack.us/img13/2624/fastfiveblurayh.jpg[/img]
[code]

Fast.Five.2011.BDRip.HCSubs.w.n.XVID.AC3.HQ.Hive-CM8

[b]Thx Hive

CM8 Doing It Right The First Time :D


btw: 120 English Sub-lines hardcoded for all kind of different foreign parts only. :P
no bogus-subs like "speaking spanish" etc.


Source: Bluray

Video: 720x304 @bitrate 1800 2pass
Audio: English DTS to AC3 5.1 @448
Sample: yes included
Subs: yes hardcoded for all foreign parts only when needed[/b]


[url]http://www.imdb.com/title/tt1596343/[/url]


General
Complete name                    : Fast.Five.2011.BDRip.HCSubs.when.needed.XVID.AC3.HQ.Hive-CM8.avi
Format                           : AVI
Format/Info                      : Audio Video Interleave
Format profile                   : OpenDML
Format settings                  : rec
File size                        : 2.05 GiB
Duration                         : 2h 10mn
Overall bit rate                 : 2 252 Kbps
Writing application              : AVI-Mux GUI 1.17.7, Aug  8 2006  20:59:17

Video
ID                               : 0
Format                           : MPEG-4 Visual
Format profile                   : Advanced Simple@L5
Format settings, BVOP            : 1
Format settings, QPel            : Yes
Format settings, GMC             : No warppoints
Format settings, Matrix          : Default (H.263)
Muxing mode                      : Packed bitstream
Codec ID                         : XVID
Codec ID/Hint                    : XviD
Duration                         : 2h 10mn
Bit rate                         : 1 798 Kbps
Width                            : 720 pixels
Height                           : 304 pixels
Display aspect ratio             : 2.35:1
Frame rate                       : 23.976 fps
Color space                      : YUV
Chroma subsampling               : 4:2:0
Bit depth                        : 8 bits
Scan type                        : Progressive
Compression mode                 : Lossy
Bits/(Pixel*Frame)               : 0.343
Stream size                      : 1.64 GiB (80%)
Writing library                  : XviD 1.2.1 (UTC 2008-12-04)

Audio
ID                               : 1
Format                           : AC-3
Format/Info                      : Audio Coding 3
Mode extension                   : CM (complete main)
Codec ID                         : 2000
Duration                         : 2h 10mn
Bit rate mode                    : Constant
Bit rate                         : 448 Kbps
Channel(s)                       : 6 channels
Channel positions                : Front: L C R, Side: L R, LFE
Sampling rate                    : 48.0 KHz
Bit depth                        : 16 bits
Compression mode                 : Lossy
Stream size                      : 418 MiB (20%)
Alignment                        : Aligned on interleaves
Interleave, duration             : 64 ms (1.53 video frames)
Interleave, preload duration     : 192 ms


Plot:
Dominic and his crew find themselves on the wrong side of the law once again as they
try to switch lanes between a ruthless drug lord and a relentless federal agent.


Cast:
Vin Diesel       ...    Dominic Toretto
Paul Walker      ...    Brian O'Conner
Jordana Brewster ...    Mia Toretto
Dwayne Johnson   ...    Luke Hobbs

[/code]
Screens:
[img]http://img571.imageshack.us/img571/4552/56237666.png[/img]
[img]http://img233.imageshack.us/img233/8704/fafaw.png[/img]
[img]http://img840.imageshack.us/img840/5153/fafafam.png[/img]
[img]http://img192.imageshack.us/img192/9320/fafafafap.png[/img]
[img]http://img829.imageshack.us/img829/2145/fafafafafa.png[/img]
[img]http://img836.imageshack.us/img836/2600/fafafafafafa.png[/img]
[img]http://img43.imageshack.us/img43/5669/fafafafafafafa.png[/img]
[img]http://img824.imageshack.us/img824/4199/fafafafafafafafat.png[/img]
[img]http://img62.imageshack.us/img62/9014/fafafafafafafafafa.png[/img]
[img]http://img193.imageshack.us/img193/8284/fafafafafafafafafafa.png[/img]